<svg version="1.1" id="Layer_1" xmlns="http://www.w3.org/2000/svg" x="0px"
     y="0px"
     viewBox="0 0 729 732">
    <style type="text/css">
        .st0 {
        fill: #007DFC;
        }
    </style>

    <g>
        <path class="st0" d="M721.6,359.5c-5.4-4.8-12.1-7.1-19.2-7.5c-5.8,0.2-10.7,1.8-15.1,5.1c-0.1,0-0.2,0-0.3,0
		c-0.5,0.5-0.9,0.9-1.4,1.4c-0.4,0.3-0.7,0.7-1.1,1c-0.9,1-1.7,1.9-2.6,2.9c-1.4,1.6-2.8,3.2-4.2,4.7c-0.6,0.7-1.2,1.3-1.8,2
		c0,0,0,0,0,0c-2.5,2.8-4.9,5.7-7.4,8.6c-2.6,3.1-5.3,6.2-8,9.3c-4.9,5.6-9.7,11.2-14.4,17c-2.8,3.5-5.7,6.9-8.8,10.2
		c-2.3,2.5-4.5,5.1-6.7,7.7c-5.4,6.7-11,13-16.8,19.3c-2.8-2.3-5.6-4.6-8.3-7.1c-4.9-4.5-9.9-8.9-15.2-13c-0.9-0.7-1.7-1.3-2.5-2
		c-5.6-4.5-11.5-8.4-17.7-11.9c-0.8-0.5-1.6-0.9-2.4-1.3c-3.8-2.1-7.6-4.2-11.6-5.8c-1.3-0.5-1.3-0.5-2.7-1
		c-0.9-0.4-1.8-0.7-2.7-1.1c-1-0.4-1-0.4-2-0.8c-0.1-29.2-0.2-58.3-0.3-87.5c0-3.5,0-7,0-10.6c0-0.7,0-1.4,0-2.1
		c0-11.4-0.1-22.7-0.1-34.1c0-11-0.1-22.1-0.1-33.1c0-6.6-0.1-13.2-0.1-19.7c0-6.3,0-12.6-0.1-18.9c0-2.3,0-4.7,0-7
		c0-13.2,0.2-26-3.4-38.8c-6.8-18.8-18.9-35.8-37.2-44.9c-0.9-0.4-1.9-0.9-2.8-1.3c-14.5-6.9-28.3-7.3-44.1-7.5
		c-3.1,0-6.3-0.1-9.4-0.1c-2,0-4-0.1-6-0.1c-1,0-1.9,0-2.9,0c-1.3,0-1.3,0-2.6,0c-1.4,0-2.7-0.1-4.1-0.2c-1.2-1-1.2-1-1.2-2.8
		c-1-14.1-2.6-25.5-10.7-37.5C403.6,23.8,365,10.4,332.6,5.4c-1.3-0.2-1.3-0.2-2.6-0.4c-15.6-2.3-31.1-4.6-46.9-5
		c-1.1,0-1.1,0-2.1,0c-31.1-0.6-62.3,2.1-92.4,10.5c-1.1,0.3-2.1,0.6-3.2,0.9c-6.9,2-13.4,4.3-19.9,7.3c-1.3,0.6-1.3,0.6-2.5,1.2
		c-8.1,3.8-15.9,8-22.8,13.1c-0.1,0-0.1-0.1-0.2-0.1c-2.3,1.6-4.3,3.4-6.2,5.4c-5.3,4.8-9.9,10.4-13.5,17.2
		c-0.4,0.8-0.8,1.6-1.2,2.5c-4.2,8.2-4.2,8.2-5.6,27.7c-0.1,2.2,0.2,3.8-1.4,5.3c-1.7,0-3.4,0.1-5.2,0.1c-1.5,0-3,0-4.5-0.1
		c-2.4,0-4.9,0-7.3-0.1c-24.3-0.3-46.4,1.9-65.9,16.1c0,0-0.1,0-0.1-0.1c-0.8,0.7-1.6,1.3-2.4,2c-1.2,1-2.4,2-3.6,3
		C5.2,130.2-0.8,150.7-0.6,175.6c0,2,0,4.1,0,6.1c0,5.6,0,11.3,0,16.9c0,6.1,0,12.3,0,18.4c0,12,0,24.1,0,36.1c0,10.6,0,21.2,0,31.7
		c0,0.7,0,1.4,0,2.1c0,2.9,0,5.7,0,8.6c0,26.7,0,53.4,0.1,80.2c0,23.8,0,47.5,0,71.3c0,1.5,0,3.1,0,4.6c0,0.8,0,1.5,0,2.3
		c0,3.8,0,7.6,0,11.4c0,0.8,0,1.5,0,2.3c0,19.9,0,39.9,0,59.8c0,0.7,0,1.4,0,2.1c0,0.7,0,1.4,0,2.1c0,0.7,0,1.4,0,2.1
		c0,1.4,0,2.8,0,4.3c0,9.9,0,19.8,0,29.7c0,12.2,0,24.3,0,36.5c0,6.2,0,12.4,0,18.6c0,5.8,0,11.5,0,17.3c0,2.1,0,4.2,0,6.3
		c0,10.4-0.3,20.4,2.6,30.4c0.3,0.8,0.5,1.5,0.8,2.2c3.8,11.2,9.8,21.2,17.9,29.9c18.4,18.1,41,23.5,66,23.4c1.7,0,3.3,0,5,0
		c4.6,0,9.2,0,13.8,0c5,0,10,0,15.1,0c9.9,0,19.7,0,29.6,0c11.6,0,23.2,0,34.7,0c20.6,0,41.3,0,61.9,0c20.1,0,40.2,0,60.2,0
		c1.3,0,2.5,0,3.8,0c1.3,0,2.5,0,3.7,0c23,0,46,0,68.9,0c8.1,0,16.2,0,24.3,0c10,0,19.9,0,29.9,0c5.1,0,10.2,0,15.3,0
		c4.7,0,9.4,0,14.1,0c1.7,0,3.5,0,5.2,0c14,0,28,0,41.9-2.7c1-0.2,2-0.4,3-0.6c41.5-8.6,78.1-30.5,104.3-64
		c28.6-37.7,40.8-83.6,34.7-130.5c-0.1-0.8-0.2-1.5-0.3-2.3c-1.3-9.4-3.6-18.1-6.6-27.1c-1.6-4.5-3.1-9-4.4-13.7
		c-0.3-3.4-0.3-3.4,1.8-6.2c1.3-1.5,2.7-2.9,4-4.4c0.5-0.5,0.9-1.1,1.4-1.6c1.7-1.8,3.3-3.7,4.8-5.6c3.6-4.7,7.4-9.1,11.4-13.4
		c3.4-3.7,6.8-7.4,9.9-11.4c4.6-5.7,9.5-11.3,14.3-16.9c3.1-3.6,6.3-7.2,9.4-10.9c2.5-2.9,5-5.9,7.5-8.8
		c7.7-8.9,18.6-18.3,19.6-30.7C729.3,372.9,727.4,366,721.6,359.5z M151.9,57.9c0.7-0.6,1.4-1.3,2.1-1.9
		c39.9-35.7,115.8-34.3,165.2-26.5c0.9,0.2,1.8,0.3,2.8,0.5c26.9,4.3,56.5,12.1,76.7,31.5c7.1,7.8,9.5,16.7,9.6,27.1
		c0,1.2,0,1.2,0,2.3c0,1.7,0,3.3,0,5c0,2.6,0,5.2,0,7.7c0,1.7,0,3.4,0,5.1c0,0.8,0,1.6,0,2.5c0,6.2,0.5,13.3-3.6,18.4
		c-4.2,4-7.4,5-13.1,5.1c-1,0-1.9,0-2.9,0c-3.3,0-6.5,0-9.8,0c-2.4,0-4.8,0-7.2,0c-6.5,0-13,0-19.6,0c-6.9,0-13.9,0-20.8,0
		c-12.4,0-24.7,0-37.1,0c-12,0-24.1-0.1-36.1-0.1c-13.2,0-26.3,0-39.5,0c-1.4,0-2.8,0-4.2,0c-0.7,0-1.4,0-2.1,0c-4.9,0-9.7,0-14.6,0
		c-6,0-11.9,0-17.9,0c-2.5,0-4.9,0-7.4,0c-3.4,0-6.8,0-10.3,0c-1.6,0-1.6,0-3.1,0c-6.6,0.1-10.9,0-16.2-4.5
		c-3.1-4.4-3.3-8.3-3.4-13.6c0-1.5,0-1.5,0-2.9c0-2.1,0-4.1,0-6.2c0-3.2,0.1-6.4,0.1-9.7c0-2.1,0-4.2,0-6.3c0-1,0-2,0-3
		c0-1,0-2,0-2.9c0-0.9,0-1.8,0-2.7c0-0.8,0-1.6,0-2.4C140.4,71,145.2,64.1,151.9,57.9z M25.6,644.5c0-2,0-4,0-6c0-5.5,0-11.1,0-16.6
		c0-6.1,0-12.1,0-18.2c0-11.9,0-23.7,0-35.6c0-10.4,0-20.9,0-31.3c0-1.4,0-2.8,0-4.2c0-2.1,0-4.2,0-6.3c0-19.6,0-39.2,0-58.8
		c0-0.8,0-1.5,0-2.2c0-6,0-12,0-18c0-23.4,0-46.8,0-70.3c0-26.4,0-52.8,0-79.2c0-2.8,0-5.6,0-8.4c0-0.7,0-1.4,0-2.1
		c0-10.4,0-20.9,0-31.3c0-11.3,0-22.6,0-33.9c0-6.1,0-12.3,0-18.4c0-5.7,0-11.3,0-17c0-2.1,0-4.1,0-6.2C25.4,164.5,26,150.4,36,137
		c10.2-12.4,24-19.3,40.1-19.4c1.4,0,1.4,0,2.8,0c2,0,4,0,6,0c3.1,0,6.3,0.1,9.4,0.1c2.1,0,4.1,0,6.2,0c1,0,2,0,2.9,0
		c1,0,1.9,0,2.9,0c0.9,0,1.8,0,2.6,0c1.4,0,2.7,0.1,4.1,0.2c1.3,1.1,1.3,1.1,1.4,3.9c1.3,11.2,4,18.7,11.6,27.1
		c7.4,6.9,16,10.4,26.1,10.5c1,0,2,0,3,0c3.4,0,6.8,0,10.2,0c2.5,0,5,0,7.5,0c6.8,0,13.6,0,20.4,0c7.2,0,14.4,0,21.6,0
		c12.9,0,25.7,0,38.6-0.1c12.5,0,25-0.1,37.5-0.1c0.8,0,1.6,0,2.3,0c3.1,0,6.2,0,9.3,0c12,0,24,0,36,0c3.6,0,7.2,0,10.8,0
		c7.6,0,15.3,0,22.9,0c2.5,0,5.1,0,7.6,0c3.6,0,7.1,0,10.7,0c1.1,0,2.1,0,3.2,0c1,0,2,0,3,0c0.9,0,1.8,0,2.7,0
		c6.3,0,11.2-1.9,16.5-5.1c8.8-6.3,14.3-14.1,16.2-24.8c0.5-4,1.5-7.4,2.8-11.2c5.3,0,10.5,0,15.8,0c2.1,0,4.3,0,6.4,0
		c3.2,0,6.3,0,9.5,0c1,0,2,0,3,0c1,0,1.9,0,2.9,0c0.9,0,1.8,0,2.7,0c12.3,0,23.2,5.9,31.9,14.3c13.5,14.5,15.4,31,15.3,50
		c0,2.1,0,4.3,0,6.4c0,5.8,0,11.7,0,17.5c0,6.2,0,12.4,0,18.6c0,11.7,0,23.4-0.1,35.1c0,10.1-0.1,20.2-0.1,30.2c0,0.7,0,1.4,0,2
		c0,2,0,4,0,6c0,11,0,21.9,0,32.9c0,3.7,0,7.4,0,11.2c0,6,0,11.9,0,17.9c0,2.2,0,4.4,0,6.5c0,3.1,0,6.1,0,9.2c0,0.9,0,1.8,0,2.7
		c0,0.9,0,1.7,0,2.6c0,2.5,0.7,5.1-1.1,6.9c-3.5,0.1-6.8,0-10.2-0.4c-30.4-4.9-71.6-3.1-98.8,13.7c-14.7,10.1-29.1,10.2-46.2,10
		c-4-0.1-8.1-0.1-12.1-0.1c-7.7,0-15.3,0-23-0.1c-11.3-0.1-22.7-0.1-34-0.1c-1.7,0-3.4,0-5.1,0c-1.3,0-1.3,0-2.5,0
		c-4.9,0-9.7,0-14.6,0c-3.1,0-6.1,0-9.2-0.1c-1.4,0-2.9,0-4.3,0c-1.3,0-2.7,0-4,0c-1.9,0-1.9,0-3.7,0c-4.5,0-8,0.5-12.2,2.2
		c-1.4,2-1.4,2-2,5c-0.4,5-0.9,8.7,2,13c4.5,4,7.9,4.5,13.8,4.6c1.1,0,2.1,0,3.1,0c3.5,0,6.9,0,10.4,0c2.5,0,5,0,7.4,0
		c6.5,0,13,0.1,19.5,0.1c10.6,0,21.3,0.1,31.9,0.1c3.7,0,7.5,0,11.2,0c2.4,0,4.7,0,7.1,0c1.1,0,2.2,0,3.3,0c1.1,0,2.1,0,3.1,0
		c1,0,1.9,0,2.8,0c2.2,0,3.8-0.4,5.3,1.1c-13.9,15.8-25.6,32.5-34.1,51.8c-0.5,1.1-0.5,1.1-0.9,2.2c-7.6,17.5-11.5,35.9-13,54.8
		c0-0.6,0-1.2,0-1.8c-0.3,0-0.7,0-1,0c-0.3,7.5-0.7,14.7-1,22c-7.1,0.1-14.2,0.1-21.3,0.2c-3.6,0-7.3,0.1-10.9,0.1
		c-3.6,0-7.1,0.1-10.7,0.1c-1.4,0-2.7,0-4.1,0.1c-6.3,0-11.9-0.2-17.1,1.8c-1.6,0.4-3.1,1.2-4.8,2.5c-0.5,0.4-1.1,0.8-1.6,1.2
		c-1,1.9-1.5,3.8-1.8,5.7c-0.3,2.3-0.1,4.6,0.2,7.2c1,3,1,3,3,4c6.6,4.6,6.6,4.6,20.9,4.6c1.4,0,2.8,0,4.3,0c3.7,0,7.5,0.1,11.2,0.1
		c6.1,0,12.2,0.1,18.3,0.1c2.1,0,4.3,0,6.4,0c1.1,0,1.1,0,2.1,0c1.3,0,2.6,0,3.9,0c2,0,4,0,6,0.1c1.3,1.2,1.3,1.2,1.9,4.1
		c10.9,39.6,31.4,74.2,65,98.6c2.1,1.5,4.1,3,6.2,4.6c0.3,0.9,0.6,1.8,0.9,2.7c-109.9,0-216.6,0-323.3,0
		c-8.9-1.8-16.6-5.8-24.4-13.2C27.2,677.5,25.5,662.3,25.6,644.5z M631.2,558.6c0,5.1-0.1,10.3-0.2,15.4
		c-2.2,31.9-18.9,67.5-43.1,88.8c-2.1,1.8-4.2,3.5-6.3,5.4c-8.7,8.1-17.8,14.7-28.4,20.2c-1.7,0.8-1.7,0.8-3.3,1.7
		c-20.3,10.4-41,15.2-63.7,15.3c-0.7,0-1.4,0-2,0c-38.6,0.2-75.2-14.3-102.8-41.4c-28.4-28.9-44.7-64.8-44.8-105.6
		c0.4-38.3,14.5-75.7,41.9-103c0.5-0.5,0.9-0.9,1.4-1.4c20.4-20.1,45.9-34.5,74.1-40.3c1.3-0.3,2.6-0.5,3.9-0.7
		c17.5-3.6,37-3.5,54.5,0.3c1.1,0.2,1.1,0.2,2.2,0.5c32.3,7.4,60.1,23.6,81.3,49.2c-3.6,4.8-7.3,9.4-11.4,13.9
		c-2.4,2.6-4.7,5.2-6.9,7.9c-2.9,3.6-5.9,7.3-9,10.8c-3.9,4.2-7.6,8.5-11.2,13c-2.9,3.6-5.9,7.1-9,10.5c-2.3,2.5-4.5,5.1-6.7,7.7
		c-3,3.7-6,7.5-9.3,11.1c-3.3,3.6-6.7,7.2-9.8,11c-3,3.7-6,7.4-9.1,11.1c-0.8,0.9-1.6,1.8-2.4,2.7c-2.6,2.9-4.6,4.9-8.2,6.4
		c-6.3-7.2-12.2-14.7-18.1-22.2c-7.1-9.1-14.4-18.1-21.7-27.1c-3.5-4.2-7-8.4-10.3-12.7c-7.3-9.5-12.7-16.6-24.9-19
		c-8.4-0.7-15.4,1.8-22,7c-4.1,4.9-6.6,10.9-7.2,17.2c-0.2,10.4,4.6,17.4,11.2,25c2.2,2.6,4.4,5.2,6.5,7.9
		c6.1,8.1,12.5,16,18.9,23.8c6.8,8.3,13.6,16.6,20.2,25.1c4,5.1,8.1,10.2,12.2,15.2c2.9,3.6,5.8,7.1,8.6,10.7
		c5.1,6.6,10.1,13,18.1,15.9c6.6,1.9,13.5,1.9,19.8-1c1.2-0.6,1.2-0.6,2.3-1.2c2.8-1.5,4.5-2.7,6.5-5.1c2-2.7,2-2.7,4.3-5.2
		c4.2-4.5,8.2-9,12.1-13.8c4.4-5.5,8.9-10.8,13.5-16.1c2.5-3,5.1-5.9,7.6-8.9c1-1.2,2-2.3,3-3.5c1.5-1.8,1.5-1.8,7.5-8.8
		c1-1.2,2-2.3,3-3.5c2.5-2.9,5.1-5.9,7.6-8.8c5.8-6.7,11.5-13.5,17.4-20.2c3.1-3.5,6.2-7,9.2-10.7c3.9-4.9,7.9-9.6,12.3-14.2
		c1.6-1.4,1.6-1.4,4.5-1.1c0.8,2.5,1.5,5,2.1,7.5c0.3,1.2,0.6,2.3,0.9,3.5c2.7,10.5,3.2,20.6,3.3,31.4
		C631.3,557.1,631.3,557.8,631.2,558.6z"/>
        <path class="st0" d="M256.2,279.3c0.8,0,1.6,0,2.3,0c2.7,0,5.3,0,8,0c1.9,0,3.9,0,5.8,0c5.3,0,10.6,0,15.9,0c5.6,0,11.3,0,16.9,0
		c9.4,0,18.9,0,28.3,0c11,0,22,0,33,0c10.6,0,21.3,0,31.9,0c4.5,0,9,0,13.5,0c5.4,0,10.8,0,16.2,0c2,0,4,0,6,0c2.8,0,5.6,0,8.3,0
		c0.9,0,1.7,0,2.5,0c6.6,0,11.7-0.1,17.1-4.1c2.2-3.3,3.2-6.1,3.4-10c-0.2-4.3-1.5-6.8-4.4-10c-4.6-2.4-8.1-3.3-13.3-3.4
		c-0.8,0-1.6,0-2.4,0c-2.7,0-5.4,0-8.1,0c-2,0-3.9,0-5.9,0c-5.4,0-10.7,0-16.1,0c-5.7,0-11.4,0-17.1,0c-9.6,0-19.1,0-28.7,0
		c-11.1,0-22.3,0-33.4,0c-9.6,0-19.3,0-28.9,0c-5.7,0-11.5,0-17.2,0c-5.5,0-11,0-16.4,0c-2,0-4,0-6.1,0c-2.8,0-5.6,0-8.4,0
		c-0.9,0-1.7,0-2.5,0c-5.5,0-9.7,0.4-14.5,3.4c-2.7,2.3-3.9,3.9-4.3,7.5c-0.1,6.4,0.7,9.7,5.3,14.5
		C247.5,278.6,251.5,279.2,256.2,279.3z"/>
        <path class="st0" d="M186.1,369.2c-3.9,1.4-6.1,3.7-8.7,6.8c-0.9,1.1-1.9,2.3-2.8,3.4c-0.5,0.6-1,1.2-1.5,1.8
		c-2.5,3-5.1,6.1-7.7,9.1c-3.3,3.8-6.6,7.6-9.8,11.5c-3.9,4.8-7.9,9.5-12.1,14.1c-3.7,3.9-7.1,8-10.4,12.2c-1.9,2.5-3.3,4.4-6,5.9
		c-2.2,0.1-2.2,0.1-4.4-1.6c-1.4-1.3-2.8-2.6-4.3-3.8c-1.8-1.5-3.5-3.1-5.3-4.6c-4.5-4-8.8-7.3-14.1-10c-5.2-0.6-8.6,0.1-13,3
		c-3.5,3.8-3.5,7.7-3.3,12.6c0.5,4.4,2.3,6.5,5.6,9.2c5.8,4.5,11.4,9.2,17,13.9c2.2,1.9,4.4,3.8,6.7,5.7c1,0.9,2,1.7,3,2.5
		c5.3,4.6,8.8,7,16,7c4.4-1.4,8-4.9,11-8.3c3.8-4.9,7.7-9.6,11.8-14.3c3.6-4.1,7.2-8.2,10.7-12.4c3.7-4.6,7.5-9.1,11.5-13.5
		c3.3-3.6,6.4-7.2,9.5-11c3.2-3.9,6.4-7.6,9.9-11.3c4.3-4.5,7.4-8.5,7.9-14.9c-0.4-5-1.7-7.8-5.2-11.3
		C194.1,369.5,190.3,368.9,186.1,369.2z"/>
        <path class="st0" d="M90.4,282.9c1.7,1.4,3.5,2.7,5.2,4.1c0.9,0.7,1.8,1.5,2.6,2.2c4.5,3.6,8.8,7.3,13.1,11.1
		c4.7,4.1,10.1,10.3,16.8,10.1c5.8-0.6,8.3-2.6,12.1-6.9c2.5-3,5.1-6,7.8-8.9c4-4.3,7.9-8.7,11.7-13.3c2.2-2.7,4.3-5.3,6.6-7.9
		c3.9-4.3,7.7-8.6,11.4-13.1c2-2.5,4-4.9,6.1-7.4c0.8-0.9,0.8-0.9,1.6-1.8c1.2-1.4,2.5-2.8,3.7-4.2c1.6-1.8,3.1-3.5,4.7-5.3
		c0.6-0.6,1.1-1.3,1.6-1.9c1-1.2,2.1-2.4,3.1-3.5c4-4.8,5.1-9,4.6-15.3c-1.3-3.8-2.3-5.5-5.7-7.9c-5.2-1.8-9-1.7-12.4-0.1
		c-0.6,0-1.3,0-1.9,0c-0.7,0.7-1.4,1.5-2.2,2.2c-0.8,0.9-1.5,1.8-2.3,2.6c-0.8,0.8-1.6,1.7-2.5,2.7c-1,1.2-2.1,2.4-3.1,3.7
		c-0.6,0.7-1.1,1.3-1.6,1.9c-2.6,3.1-5.2,6.1-7.8,9.2c-1,1.2-2,2.3-3,3.5c-2,2.3-4,4.7-6,7c-0.8,0.9-0.8,0.9-1.5,1.8
		c-1,1.2-2,2.4-3,3.5c-2.5,2.9-5,5.8-7.4,8.7C137.4,266,132.4,272,126,277c-3.4-2.4-6.6-4.8-9.7-7.5c-0.6-0.6-1.3-1.1-1.9-1.7
		c-1.3-1.2-2.6-2.3-3.9-3.5c-4.6-4.3-8.1-7.1-14.4-8.2c-4.3,0.1-7.3,1.3-10.4,4.2c-2.7,4.5-3.7,7.3-3.3,12.6
		C83.7,277.4,83.7,277.4,90.4,282.9z"/>
        <path class="st0" d="M252,101.8c7.6,5.6,16,7.7,25.3,7c10.8-1.3,18.2-6.2,25.1-14.6c6-8.7,6.7-18.6,5.1-28.9
		c-2.1-8.5-7.3-15-14.3-19.9c-13.1-8.3-28-7.6-39.8,0.8c-2.5,0.7-4.7,3.1-6.3,5.6c0,0-0.1,0.1-0.1,0.1c-5.3,6.5-8.8,15.2-8.3,23.7
		C240.3,86.3,243.9,94.7,252,101.8z M266,71c2.5-3.4,3.9-4.8,8.1-5.6c3.7,0.7,4.8,1.5,6.9,4.6c1.2,4.1,1.5,6.1-0.4,9.9
		c-2.3,2.1-2.3,2.1-4.5,2.5c-3.5,0.2-5.6-0.1-8.6-2C265.4,77,265.4,75,266,71z"/>
        <path class="st0" d="M82.2,587.2c0,0,0,0.1,0,0.1c0,0.2,0,0.3,0,0.5c1.4,4.6,1.4,4.6,8.9,10.9c1,0.8,1.9,1.5,2.8,2.3
		c1.8,1.5,3.7,3,5.5,4.5c2.8,2.2,5.5,4.5,8.1,6.9c1.7,1.5,3.3,3.1,5,4.6c5.9,5.2,10.4,8.9,18.6,8.4c5.1-0.8,5.1-0.8,16.3-14.7
		c2.2-2.8,4.5-5.5,6.8-8.2c3.9-4.2,7.6-8.5,11.2-13c2.9-3.6,5.9-7.1,9-10.5c3.1-3.4,6-6.8,8.9-10.4c2.4-3,4.9-5.9,7.5-8.7
		c3.9-4.1,8-8.1,10.9-13c1.9-4.6,1.8-9.2,0.2-13.9c-1.9-2.9-3.9-4.6-7-6c-5.3-0.9-9.5-0.9-13.4,2.5c-1.9,0.9-3.3,2.8-4.4,4.9
		c-1.4,1.7-2.9,3.3-4.3,4.9c-3.9,4.3-7.7,8.6-11.4,13.1c-2.9,3.6-5.9,7.1-9,10.5c-2.3,2.5-4.5,5-6.6,7.6c-6,7.4-12.3,14.4-18.9,21.4
		c-3.1-1-4.9-2.5-7.4-4.6c-1.1-1-2.3-2-3.4-3c-1.7-1.5-3.5-3-5.2-4.4c-2.5-2.3-4.9-4.5-7.5-6.6c-0.8-0.4-1.6-0.8-2.4-1.1
		c-0.4-0.2-0.8-0.3-1.5-0.4c-3.1-0.7-6.3-0.5-9.6,0.1c-0.5,0.5-0.5,0.5-1,1c-2.4,2.2-2.4,2.2-5,5c-1.3,2.4-1.7,4.2-1.8,6.4
		C82.1,585.2,82.1,586.1,82.2,587.2z"/>
    </g>
</svg>
